<?xml version="1.0" standalone="no"?>
<!DOCTYPE svg PUBLIC "-//W3C//DTD SVG 20010904//EN"
 "http://www.w3.org/TR/2001/REC-SVG-20010904/DTD/svg10.dtd">
<svg version="1.0" xmlns="http://www.w3.org/2000/svg"
 width="277.000000pt" height="316.000000pt" viewBox="0 0 277.000000 316.000000"
 preserveAspectRatio="xMidYMid meet">

<g transform="translate(0.000000,316.000000) scale(0.100000,-0.100000)"
fill="#000000" stroke="none">
<path d="M0 3010 l0 -150 215 0 c118 0 215 -3 215 -6 0 -15 -72 -419 -93 -524
l-23 -115 -157 -3 -157 -3 0 -194 c0 -176 2 -194 18 -198 16 -4 16 -5 0 -6
-13 -1 -18 -10 -18 -34 0 -28 6 -36 38 -52 l37 -20 -38 -3 c-32 -3 -36 -6 -26
-18 8 -10 8 -14 0 -14 -7 0 -11 -24 -11 -66 l0 -67 32 7 c110 23 163 27 147
11 -3 -2 -43 -13 -89 -23 l-85 -18 -3 -48 c-4 -61 15 -79 73 -72 23 3 49 8 58
12 12 4 17 1 17 -11 0 -9 -10 -19 -21 -22 -20 -5 -20 -7 -6 -18 12 -9 15 -21
10 -48 -3 -21 -10 -37 -16 -37 -6 0 -34 14 -64 30 l-53 30 0 -66 c0 -64 1 -66
23 -60 44 12 97 18 97 12 0 -25 -26 -45 -70 -56 l-50 -12 0 -74 c0 -41 3 -74
8 -74 4 0 22 4 40 10 l34 9 -7 -52 c-4 -29 -11 -69 -16 -90 -9 -32 -12 -36
-29 -27 -26 14 -29 13 -25 -7 2 -10 4 -30 4 -45 1 -21 5 -26 17 -21 14 5 16 2
12 -18 -35 -155 -38 -191 -38 -471 l0 -288 94 0 94 0 5 33 c9 53 58 592 82
911 8 104 19 225 25 270 5 44 19 169 30 276 11 107 31 285 44 395 14 110 32
263 41 340 25 226 120 892 131 920 5 13 -30 15 -270 15 l-276 0 0 -150z m105
-1180 c-11 -5 -29 -8 -40 -8 -16 0 -15 2 5 8 34 11 60 11 35 0z m65 -120 c-8
-5 -26 -9 -40 -9 -23 1 -23 2 5 9 43 11 52 11 35 0z m-55 -40 c4 -6 16 -10 28
-9 55 5 69 -7 48 -39 -6 -10 -21 -7 -69 14 -34 14 -59 30 -56 35 7 12 41 11
49 -1z"/>
<path d="M2053 3147 c24 -64 143 -559 208 -872 22 -104 57 -269 79 -365 49
-219 57 -267 65 -360 3 -41 15 -133 26 -205 33 -216 69 -445 84 -540 63 -377
81 -494 105 -685 16 -127 11 -120 85 -120 l65 0 0 1580 0 1580 -155 0 -155 0
-1 -97 c-1 -54 -5 -267 -8 -473 l-6 -375 -73 -3 c-67 -3 -73 -1 -81 20 -10 28
-30 165 -29 193 1 11 1 181 0 378 l-2 357 -106 0 c-82 0 -105 -3 -101 -13z
m694 -3059 c-3 -8 -6 -5 -6 6 -1 11 2 17 5 13 3 -3 4 -12 1 -19z"/>
<path d="M1105 2169 c-38 -11 -119 -31 -180 -44 -180 -41 -187 -44 -207 -114
-19 -62 -23 -101 -11 -101 3 0 35 14 70 30 80 38 126 55 228 85 44 13 106 35
138 49 l57 26 0 45 c0 52 3 51 -95 24z"/>
<path d="M1502 2128 c3 -42 4 -43 53 -56 28 -7 137 -40 244 -73 106 -33 196
-58 198 -55 9 8 -141 157 -182 181 -42 25 -160 45 -263 45 l-53 0 3 -42z"/>
<path d="M1004 1878 c-21 -11 -52 -30 -69 -41 -57 -39 -205 -161 -205 -169 0
-10 130 -96 224 -147 51 -28 86 -41 100 -37 25 6 242 180 249 200 6 15 -76 92
-168 158 -83 59 -87 60 -131 36z m121 -88 c44 -34 89 -70 99 -80 20 -19 20
-20 -5 -46 -13 -15 -57 -53 -97 -85 -66 -53 -75 -57 -100 -48 -38 15 -199 109
-212 124 -8 10 6 27 62 72 73 60 159 122 168 123 3 0 41 -27 85 -60z"/>
<path d="M995 1714 c-9 -9 -15 -26 -13 -38 4 -28 56 -35 75 -10 17 23 16 29
-3 48 -20 20 -38 20 -59 0z"/>
<path d="M1604 1854 c-94 -63 -214 -155 -214 -165 0 -18 262 -199 288 -199 35
0 284 165 296 196 10 25 -239 214 -281 214 -11 0 -50 -21 -89 -46z m210 -83
l99 -75 -39 -34 c-61 -52 -149 -110 -178 -118 -29 -7 -101 29 -195 99 l-55 40
35 29 c62 54 212 148 223 141 6 -4 55 -40 110 -82z"/>
<path d="M1670 1716 c-16 -21 -9 -60 13 -64 25 -5 47 16 47 43 0 33 -38 46
-60 21z"/>
<path d="M2204 1650 c9 -154 60 -674 86 -870 10 -80 24 -217 30 -305 5 -88 15
-231 22 -318 l12 -157 81 0 82 0 -4 32 c-2 18 -13 91 -23 163 -11 72 -31 211
-45 310 -24 179 -43 292 -70 435 -8 41 -33 176 -55 300 -49 276 -100 512 -113
525 -6 6 -7 -35 -3 -115z"/>
<path d="M678 1485 c-21 -87 -71 -460 -103 -765 -9 -85 -27 -234 -40 -330 -13
-96 -26 -206 -30 -245 -3 -38 -8 -87 -11 -107 l-6 -38 66 0 c65 0 66 0 66 28
0 37 28 684 35 802 3 52 12 205 21 340 16 249 16 376 2 315z"/>
<path d="M1215 873 c-66 -2 -123 -7 -127 -11 -15 -15 -27 -106 -16 -119 13
-16 241 -16 453 0 l150 12 3 36 c2 19 -2 47 -7 62 l-11 27 -162 -2 c-90 -1
-217 -4 -283 -5z m423 -59 c3 -21 -1 -22 -150 -28 -84 -3 -199 -7 -256 -9
l-102 -2 0 27 c0 25 3 27 53 31 28 2 142 3 252 3 197 -1 200 -1 203 -22z"/>
</g>
</svg>
